<svg width="1024" height="1024" viewBox="0 0 1024 1024" fill="none" xmlns="http://www.w3.org/2000/svg">
<path fill-rule="evenodd" clip-rule="evenodd" d="M823.621 134.47C873.865 132.08 867.796 137.869 863.855 173.714C859.765 210.951 834.236 267.228 822.64 297.962C853.773 324.803 875.996 353.13 891.612 379.743C890.28 376.024 890.256 375.554 892.173 378.972C909.89 410.565 917.367 409.178 928.061 417.796C945.284 426.88 952.858 424.959 970.188 429.288C979.768 431.686 999.425 439.798 1005.66 461.314C1011.88 482.864 1014.75 573.86 1008.53 591.589C1002.31 609.293 996.344 627.97 973.692 632.514C936.232 640.005 906.669 660.58 894.346 672.389C872.768 713.197 838.177 750.389 783.598 775.053C778.125 777.525 772.448 779.831 766.705 782.061C768.937 794.459 761.916 842.064 759.556 851.999C753.26 878.433 751.453 887.1 728.224 889C692.497 888.369 654.208 889.697 610.116 887.598C600.161 887.12 591.15 877.631 587.826 867.206C587.826 867.206 571.038 828.339 575.84 817.731C500.315 821.874 422.354 817.876 354.904 811.354C352.456 825.704 345.374 855.691 341.166 864.823C336.613 874.684 334.958 886.657 312.217 888.089C227.782 887.141 263.78 888.044 203.081 884.725C194.506 884.248 181.457 871.45 175.604 860.548C175.604 860.548 144.899 782.476 146.725 772.39C110.103 748.784 62.9003 692.401 47.7528 587.174C103.595 589.046 284.079 588.857 285.02 588.856L313.619 545.968L361.282 660.335C367.084 671.639 385.125 688.89 401.376 660.896C418.073 632.115 451.186 498.417 464.18 434.965C481.095 502.983 501.41 584.126 519.134 648.562C525.309 670.966 549.135 676.846 561.751 653.328C583.593 612.564 593.249 577.084 602.686 555.218L634.088 589.136C673.246 589.417 719.042 589.977 758.294 589.417C797.847 588.851 791.097 548.211 756.612 548.211C737.538 548.211 684.46 549.425 653.994 549.332C644.743 538.308 649.445 542.734 625.116 513.732C617.826 505.043 595.116 472.807 576.611 512.05C560.347 546.545 549.974 577.271 545.489 587.735C527.554 517.32 491.397 373.315 488.012 360.962C478.479 326.204 449.881 329.567 442.311 358.72C434.602 388.406 397.166 526.642 378.946 591.939C369.697 570.644 350.246 524.007 344.18 508.687C333.525 481.777 317.263 468.602 291.469 508.126C274.617 533.948 266.609 546.902 263.712 548.771C195.728 548.771 121.916 548.212 45.1593 548.211C47.0629 513.846 58.3158 446.171 80.2763 388.783C58.2199 380.755 28.2102 357.008 21.8881 339.308C15.1455 320.398 5.11658 310.407 18.8741 268.67C32.2345 228.2 78.9098 221.353 81.6081 220.806C97.7264 217.395 105.472 217.335 114.482 218.283C137.211 222.101 138.086 251.264 121.351 255.845C110.928 258.688 111.945 260.089 84.4118 262.713C64.4871 264.61 58.4424 302.404 64.5753 313.239C73.0903 328.268 85.6906 338.344 105.23 337.346C111.941 326.73 119.257 317.415 127.169 309.945C232.592 212.486 421.629 140.984 639.064 203.497C665.092 179.634 732.176 138.824 823.621 134.47ZM793.201 413.521C778.483 415.973 764.97 425.139 763.13 453.956C763.13 480.32 774.611 496.901 798.107 496.283C821.396 495.657 827.802 471.703 826.916 450.872C825.684 422.079 808.921 410.91 793.201 413.521Z" fill="white"/>
</svg>
