<svg width="14" height="11" viewBox="0 0 14 11" fill="none" xmlns="http://www.w3.org/2000/svg">
<path fill-rule="evenodd" clip-rule="evenodd" d="M11.3077 0.00655233C12.0077 -0.0267557 11.9231 0.0539149 11.8682 0.553427C11.8112 1.07234 11.4556 1.85658 11.294 2.28487C11.7278 2.65891 12.0374 3.05365 12.255 3.42452C12.2364 3.3727 12.2361 3.36614 12.2628 3.41378C12.5096 3.85404 12.6138 3.83471 12.7628 3.95479C13.0027 4.08138 13.1082 4.05462 13.3497 4.11495C13.4832 4.14837 13.757 4.26141 13.8438 4.56124C13.9305 4.86154 13.9706 6.12961 13.8839 6.37667C13.7972 6.62338 13.7141 6.88365 13.3985 6.94698C12.8766 7.05136 12.4647 7.33809 12.293 7.50265C11.9924 8.07132 11.5105 8.5896 10.7501 8.93331C10.6738 8.96776 10.5947 8.99989 10.5147 9.03097C10.5458 9.20374 10.448 9.86713 10.4151 10.0056C10.3274 10.3739 10.3022 10.4947 9.97858 10.5212C9.48084 10.5124 8.94738 10.5309 8.33308 10.5017C8.19439 10.495 8.06885 10.3628 8.02253 10.2175C8.02253 10.2175 7.78864 9.67587 7.85554 9.52804C6.80331 9.58578 5.71714 9.53006 4.77741 9.43917C4.7433 9.63915 4.64464 10.057 4.58601 10.1843C4.52258 10.3217 4.49952 10.4886 4.18269 10.5085C3.00632 10.4953 3.50786 10.5079 2.66218 10.4616C2.54271 10.455 2.36091 10.2766 2.27937 10.1247C2.27937 10.1247 1.85158 9.03675 1.87702 8.8962C1.36679 8.56725 0.709154 7.78152 0.498115 6.31515C1.27612 6.34124 3.79066 6.3386 3.80378 6.33858L4.20222 5.74093L4.86628 7.33468C4.94711 7.4922 5.19845 7.73259 5.42487 7.34249C5.6575 6.94141 6.11884 5.07828 6.29987 4.19405C6.53554 5.14191 6.81856 6.27267 7.0655 7.17061C7.15153 7.48282 7.48348 7.56476 7.65925 7.23702C7.96356 6.66896 8.09809 6.17454 8.22956 5.86983L8.66706 6.34249C9.21262 6.3464 9.85067 6.35421 10.3975 6.3464C10.9486 6.33852 10.8546 5.77218 10.3741 5.77218C10.1084 5.77218 9.36886 5.7891 8.9444 5.7878C8.81552 5.63418 8.88102 5.69586 8.54206 5.29171C8.4405 5.17061 8.12409 4.7214 7.86628 5.26827C7.63969 5.74896 7.49518 6.17715 7.43269 6.32296C7.18282 5.3417 6.67906 3.33495 6.6319 3.1628C6.49909 2.67843 6.10066 2.7253 5.99519 3.13155C5.88778 3.54524 5.36622 5.47161 5.11237 6.38155C4.98352 6.08479 4.71252 5.43489 4.628 5.2214C4.47956 4.8464 4.253 4.66281 3.89362 5.21358C3.65884 5.57342 3.54726 5.75394 3.5069 5.77999C2.55974 5.77999 1.53138 5.77219 0.461983 5.77218C0.488504 5.29329 0.645281 4.35022 0.95124 3.5505C0.643946 3.43863 0.225844 3.1077 0.137764 2.86104C0.043824 2.59752 -0.0959013 2.4583 0.0957717 1.87667C0.281911 1.31271 0.932202 1.2173 0.969795 1.20968C1.19436 1.16214 1.30227 1.16131 1.4278 1.17452C1.74446 1.22773 1.75666 1.63411 1.52351 1.69796C1.37829 1.73757 1.39246 1.7571 1.00886 1.79366C0.731262 1.8201 0.647046 2.34677 0.73249 2.49776C0.851124 2.7072 1.02667 2.8476 1.2989 2.8337C1.39241 2.68576 1.49432 2.55595 1.60456 2.45186C3.07333 1.09373 5.70704 0.0973299 8.7364 0.968466C9.09901 0.635921 10.0336 0.0672205 11.3077 0.00655233ZM10.8839 3.89522C10.6788 3.9294 10.4905 4.05713 10.4649 4.4587C10.4649 4.82609 10.6249 5.05716 10.9522 5.04854C11.2767 5.03983 11.3659 4.70601 11.3536 4.41573C11.3364 4.01448 11.1029 3.85885 10.8839 3.89522Z" fill="white"/>
</svg>
