<svg width="1024" height="751" viewBox="0 0 1024 751" fill="none" xmlns="http://www.w3.org/2000/svg">
<g filter="url(#filter0_f_257_73)">
<ellipse cx="512" cy="420.5" rx="466" ry="217.5" fill="url(#paint0_radial_257_73)"/>
</g>
<g filter="url(#filter1_df_257_73)">
<path d="M322 311.5C367 304.5 408 307.167 415.5 304.5C535.667 303.167 542.6 294 575 294C615.5 294 625.5 284.5 687.5 304.5C706.5 298.5 744 317 759.108 349.5C782.608 351.5 817.608 372 814.608 424.5C806.108 468 767.346 482 754.108 482C743.108 482 730.441 481.167 725.108 479.5C716.608 493.5 689.908 521.2 651.108 520C602.608 518.5 600.608 500.167 595.608 503.5C588.108 508.5 565.108 540.5 508.608 540.5C460.108 540.5 436.364 503.5 428.608 503.5C414.108 513 376.108 529.739 346.108 516C305.108 497.225 304.108 482.5 300.108 479C278.508 485 262.442 481.5 257.108 479C238.942 472.334 201.85 447.505 211.608 404C223.608 350.5 266.108 351.5 266.108 349C271.108 323 308.5 311.5 322 311.5Z" fill="#D4E6FC"/>
</g>
<g filter="url(#filter2_f_257_73)">
<path d="M344 301.5C376 295 402.721 294.554 410 292C526.632 290.723 553.553 292 585 292C624.309 292 669.706 267.016 676.5 290C686 290 726.5 300.5 751.957 348.084C774.766 350 808.736 369.632 805.825 419.91C797.575 461.569 759.953 474.976 747.104 474.976C736.428 474.976 724.133 474.178 718.957 472.582C710.707 485.989 684.792 512.517 647.133 511.368C600.06 509.931 598.119 492.374 593.266 495.566C585.987 500.355 563.663 531 508.825 531C461.752 531 438.706 495.566 431.178 495.566C417.105 504.664 380.223 520.694 351.105 507.537C311.311 489.556 310.34 475.455 306.458 472.103C285.493 477.849 269.899 474.497 264.723 472.103C247.09 465.719 211.09 441.94 220.561 400.278C232.208 349.042 273.458 350 273.458 347.605C278.311 322.706 341.574 309.161 344 301.5Z" fill="#B2AAFF"/>
</g>
<g filter="url(#filter3_f_257_73)">
<path d="M346.463 299.891C377.046 293.798 402.583 293.38 409.54 290.986C521.006 289.79 546.735 290.986 576.789 290.986C614.356 290.986 657.743 267.569 664.236 289.112C673.315 289.112 712.021 298.953 736.35 343.554C758.149 345.349 790.615 363.751 787.832 410.876C779.948 449.922 743.992 462.489 731.713 462.489C721.509 462.489 709.759 461.741 704.812 460.245C696.928 472.812 672.161 497.676 636.17 496.599C591.182 495.252 589.327 478.796 584.689 481.788C577.732 486.276 556.397 515 503.988 515C459 515 436.974 481.788 429.78 481.788C416.33 490.315 381.082 505.34 353.254 493.008C315.222 476.155 314.295 462.938 310.584 459.796C290.548 465.182 275.645 462.04 270.697 459.796C253.846 453.812 219.44 431.525 228.492 392.474C239.623 344.452 279.046 345.349 279.046 343.105C283.684 319.767 344.145 307.072 346.463 299.891Z" fill="#D9C5EF"/>
</g>
<g filter="url(#filter4_f_257_73)">
<path d="M332 313.5C375 317.5 402.341 319.869 409 317.5C515.697 316.316 549.732 299 578.5 299L592.94 299L624 299C649 294 676.5 299 731.56 332.339C752.426 334.116 783.503 352.325 780.839 398.96C773.292 437.6 738.875 450.036 727.121 450.036C717.354 450.036 706.107 449.296 701.371 447.815C693.824 460.251 670.117 484.856 635.666 483.79C592.602 482.458 590.826 466.173 586.386 469.134C579.727 473.575 559.305 502 509.138 502C466.074 502 444.991 469.134 438.105 469.134C425.23 477.573 391.49 492.441 364.852 480.237C328.448 463.559 327.56 450.48 324.008 447.371C304.829 452.701 290.564 449.592 285.828 447.371C269.698 441.449 236.764 419.394 245.428 380.75C256.083 333.227 293.819 334.116 293.819 331.895C320 322 329.78 320.606 332 313.5Z" fill="#E1E7F3"/>
</g>
<g filter="url(#filter5_f_257_73)">
<path d="M367.5 313.5C377.772 287.596 441.837 323.693 448 321.5C546.75 320.404 548.375 313.5 575 313.5C608.282 313.5 606.5 313.5 638.5 307.5C660.5 310.5 713.873 319.078 715.243 325.931C734.555 327.576 763.317 344.434 760.851 387.608C753.866 423.38 722.013 434.893 711.134 434.893C702.095 434.893 691.685 434.207 687.302 432.837C680.317 444.35 658.376 467.129 626.491 466.142C586.635 464.909 584.992 449.832 580.883 452.573C574.719 456.685 555.819 483 509.388 483C469.533 483 450.02 452.573 443.646 452.573C431.731 460.386 400.504 474.15 375.85 462.853C342.158 447.412 341.336 435.304 338.049 432.426C320.298 437.36 307.095 434.482 302.712 432.426C287.783 426.943 257.303 406.525 265.322 370.749C275.183 326.754 310.108 327.576 310.108 325.52C314.217 304.139 365.446 320.079 367.5 313.5Z" fill="url(#paint1_radial_257_73)"/>
<path d="M367.5 313.5C377.772 287.596 441.837 323.693 448 321.5C546.75 320.404 548.375 313.5 575 313.5C608.282 313.5 606.5 313.5 638.5 307.5C660.5 310.5 713.873 319.078 715.243 325.931C734.555 327.576 763.317 344.434 760.851 387.608C753.866 423.38 722.013 434.893 711.134 434.893C702.095 434.893 691.685 434.207 687.302 432.837C680.317 444.35 658.376 467.129 626.491 466.142C586.635 464.909 584.992 449.832 580.883 452.573C574.719 456.685 555.819 483 509.388 483C469.533 483 450.02 452.573 443.646 452.573C431.731 460.386 400.504 474.15 375.85 462.853C342.158 447.412 341.336 435.304 338.049 432.426C320.298 437.36 307.095 434.482 302.712 432.426C287.783 426.943 257.303 406.525 265.322 370.749C275.183 326.754 310.108 327.576 310.108 325.52C314.217 304.139 365.446 320.079 367.5 313.5Z" fill="url(#paint2_radial_257_73)" fill-opacity="0.39"/>
</g>
<path fill-rule="evenodd" clip-rule="evenodd" d="M680.711 0.255934C707.993 -1.04516 704.698 2.10638 702.558 21.6192C700.336 41.8897 686.475 72.5252 680.178 89.2559C697.083 103.867 709.15 119.288 717.63 133.775C716.906 131.751 716.894 131.495 717.935 133.356C727.555 150.554 731.614 149.799 737.421 154.49C746.773 159.435 750.886 158.39 760.296 160.746C765.498 162.052 776.172 166.468 779.555 178.181C782.934 189.912 784.494 239.448 781.115 249.099C777.737 258.736 774.499 268.903 762.199 271.377C741.859 275.454 725.806 286.655 719.114 293.083C707.397 315.298 688.614 335.544 658.978 348.971C656.006 350.316 652.923 351.571 649.805 352.785C651.017 359.534 647.205 385.448 645.923 390.857C642.505 405.248 641.523 409.966 628.909 411C609.51 410.656 588.719 411.38 564.776 410.237C559.371 409.977 554.479 404.811 552.674 399.136C552.662 399.108 543.56 377.974 546.165 372.203C505.155 374.459 462.823 372.282 426.197 368.732C424.868 376.544 421.023 392.868 418.737 397.839C416.266 403.207 415.366 409.725 403.018 410.504C357.17 409.988 376.717 410.48 343.757 408.673C339.101 408.413 332.015 401.446 328.837 395.512C328.806 395.433 312.166 353.008 313.156 347.522C293.27 334.671 267.639 303.977 259.414 246.694C289.734 247.714 387.72 247.611 388.25 247.61L403.779 224.264L429.66 286.522C432.811 292.675 442.607 302.066 451.432 286.827C460.498 271.16 478.479 198.379 485.534 163.837C494.719 200.864 505.75 245.036 515.374 280.113C518.727 292.309 531.664 295.51 538.515 282.707C550.375 260.517 555.618 241.202 560.742 229.299L577.794 247.763C599.057 247.915 623.924 248.221 645.237 247.916C666.715 247.608 663.05 225.485 644.324 225.484C633.967 225.485 605.146 226.146 588.603 226.095C583.579 220.094 586.133 222.502 572.922 206.715C568.963 201.984 556.632 184.437 546.584 205.8C537.753 224.578 532.12 241.304 529.685 247C519.946 208.668 500.313 130.277 498.475 123.552C493.298 104.63 477.77 106.461 473.659 122.331C469.473 138.491 449.146 213.743 439.252 249.289C434.23 237.697 423.668 212.309 420.374 203.969C414.589 189.32 405.758 182.148 391.752 203.663C382.602 217.719 378.253 224.771 376.68 225.789C339.765 225.789 299.685 225.485 258.006 225.484C259.04 206.777 265.15 169.937 277.074 138.696C265.098 134.326 248.802 121.399 245.369 111.764C241.708 101.47 236.262 96.0309 243.733 73.3106C250.987 51.2821 276.328 47.5534 277.797 47.255C286.549 45.398 290.755 45.3657 295.648 45.8819C307.989 47.9603 308.465 63.8349 299.378 66.3292C293.718 67.8767 294.27 68.6393 279.319 70.0675C268.501 71.1006 265.219 91.674 268.549 97.5723C273.173 105.754 280.014 111.239 290.624 110.695C294.268 104.916 298.241 99.8452 302.537 95.7794C359.782 42.7256 462.429 3.8021 580.496 37.8321C594.629 24.8415 631.056 2.62587 680.711 0.255934ZM658.5 154.5C629 155 626 182.5 626 190.5C626 193.5 634 194.5 636 192C638.167 185.333 645.675 173 658.5 173C675.5 173 679.5 183 683 192C683.972 194.5 691 194 693 192C693.5 180 688.496 153.992 658.5 154.5Z" fill="url(#paint3_linear_257_73)"/>
<g filter="url(#filter6_f_257_73)">
<ellipse cx="512.5" cy="456" rx="32.5" ry="27" fill="#F3E3E7"/>
</g>
<path d="M616.627 412.974C589.827 416.974 568.46 434.308 561.127 442.474C558.294 442.474 553.227 441.374 555.627 436.974C558.627 431.474 579.627 401.474 616.627 398.474C653.627 395.474 671.627 407.474 674.127 412.974C676.127 417.374 671.627 418.141 669.127 417.974C662.794 414.641 643.427 408.974 616.627 412.974Z" fill="#F7ECEC"/>
<path d="M348.999 412.974C375.799 416.974 397.165 434.308 404.499 442.474C407.332 442.474 412.399 441.374 409.999 436.974C406.999 431.474 385.999 401.474 348.999 398.474C311.999 395.474 293.999 407.474 291.499 412.974C289.499 417.374 293.999 418.141 296.499 417.974C302.832 414.641 322.199 408.974 348.999 412.974Z" fill="#F7ECEC"/>
<defs>
<filter id="filter0_f_257_73" x="-66.2" y="90.8001" width="1156.4" height="659.4" filterUnits="userSpaceOnUse" color-interpolation-filters="sRGB">
<feFlood flood-opacity="0" result="BackgroundImageFix"/>
<feBlend mode="normal" in="SourceGraphic" in2="BackgroundImageFix" result="shape"/>
<feGaussianBlur stdDeviation="56.1" result="effect1_foregroundBlur_257_73"/>
</filter>
<filter id="filter1_df_257_73" x="190" y="279.745" width="644.789" height="288.755" filterUnits="userSpaceOnUse" color-interpolation-filters="sRGB">
<feFlood flood-opacity="0" result="BackgroundImageFix"/>
<feColorMatrix in="SourceAlpha" type="matrix" values="0 0 0 0 0 0 0 0 0 0 0 0 0 0 0 0 0 0 127 0" result="hardAlpha"/>
<feOffset dy="8"/>
<feGaussianBlur stdDeviation="10"/>
<feComposite in2="hardAlpha" operator="out"/>
<feColorMatrix type="matrix" values="0 0 0 0 0.482353 0 0 0 0 0.435294 0 0 0 0 0.815686 0 0 0 0.2 0"/>
<feBlend mode="normal" in2="BackgroundImageFix" result="effect1_dropShadow_257_73"/>
<feBlend mode="normal" in="SourceGraphic" in2="effect1_dropShadow_257_73" result="shape"/>
<feGaussianBlur stdDeviation="2.75" result="effect2_foregroundBlur_257_73"/>
</filter>
<filter id="filter2_f_257_73" x="185.6" y="246.879" width="653.8" height="317.521" filterUnits="userSpaceOnUse" color-interpolation-filters="sRGB">
<feFlood flood-opacity="0" result="BackgroundImageFix"/>
<feBlend mode="normal" in="SourceGraphic" in2="BackgroundImageFix" result="shape"/>
<feGaussianBlur stdDeviation="16.7" result="effect1_foregroundBlur_257_73"/>
</filter>
<filter id="filter3_f_257_73" x="212.4" y="265.4" width="590.2" height="264.2" filterUnits="userSpaceOnUse" color-interpolation-filters="sRGB">
<feFlood flood-opacity="0" result="BackgroundImageFix"/>
<feBlend mode="normal" in="SourceGraphic" in2="BackgroundImageFix" result="shape"/>
<feGaussianBlur stdDeviation="7.3" result="effect1_foregroundBlur_257_73"/>
</filter>
<filter id="filter4_f_257_73" x="215.6" y="268.943" width="593.8" height="261.457" filterUnits="userSpaceOnUse" color-interpolation-filters="sRGB">
<feFlood flood-opacity="0" result="BackgroundImageFix"/>
<feBlend mode="normal" in="SourceGraphic" in2="BackgroundImageFix" result="shape"/>
<feGaussianBlur stdDeviation="14.2" result="effect1_foregroundBlur_257_73"/>
</filter>
<filter id="filter5_f_257_73" x="231.9" y="272.002" width="561.2" height="243.098" filterUnits="userSpaceOnUse" color-interpolation-filters="sRGB">
<feFlood flood-opacity="0" result="BackgroundImageFix"/>
<feBlend mode="normal" in="SourceGraphic" in2="BackgroundImageFix" result="shape"/>
<feGaussianBlur stdDeviation="16.05" result="effect1_foregroundBlur_257_73"/>
</filter>
<filter id="filter6_f_257_73" x="434.1" y="383.1" width="156.8" height="145.8" filterUnits="userSpaceOnUse" color-interpolation-filters="sRGB">
<feFlood flood-opacity="0" result="BackgroundImageFix"/>
<feBlend mode="normal" in="SourceGraphic" in2="BackgroundImageFix" result="shape"/>
<feGaussianBlur stdDeviation="22.95" result="effect1_foregroundBlur_257_73"/>
</filter>
<radialGradient id="paint0_radial_257_73" cx="0" cy="0" r="1" gradientUnits="userSpaceOnUse" gradientTransform="translate(512 420.5) rotate(90) scale(217.5 466)">
<stop stop-color="#727EFF"/>
<stop offset="0.8" stop-color="#C9C5F8"/>
<stop offset="1" stop-color="#73718A" stop-opacity="0"/>
</radialGradient>
<radialGradient id="paint1_radial_257_73" cx="0" cy="0" r="1" gradientUnits="userSpaceOnUse" gradientTransform="translate(512.5 364.5) rotate(90) scale(118.5 248.5)">
<stop stop-color="white"/>
<stop offset="1" stop-color="#D4D0F5"/>
</radialGradient>
<radialGradient id="paint2_radial_257_73" cx="0" cy="0" r="1" gradientUnits="userSpaceOnUse" gradientTransform="translate(512.5 364.5) rotate(90) scale(118.5 248.5)">
<stop stop-color="#A89FE0" stop-opacity="0"/>
<stop offset="1" stop-color="#A89FE0"/>
</radialGradient>
<linearGradient id="paint3_linear_257_73" x1="276.708" y1="51.3588" x2="698.429" y2="323.117" gradientUnits="userSpaceOnUse">
<stop stop-color="#38BDF8"/>
<stop offset="0.657757" stop-color="#6366F1"/>
<stop offset="1" stop-color="#D946EF"/>
</linearGradient>
</defs>
</svg>
