<svg width="1024" height="1024" viewBox="0 0 1024 1024" fill="none" xmlns="http://www.w3.org/2000/svg">
<path fill-rule="evenodd" clip-rule="evenodd" d="M797.752 166.191C843.825 163.999 838.259 169.308 834.646 202.185C830.895 236.338 807.486 287.956 796.852 316.145C825.4 340.763 845.779 366.744 860.099 391.154C858.877 387.743 858.855 387.311 860.613 390.446C876.859 419.424 883.715 418.151 893.522 426.055C909.315 434.387 916.26 432.625 932.151 436.596C940.936 438.795 958.961 446.236 964.674 465.97C970.382 485.735 973.015 569.196 967.309 585.457C961.605 601.694 956.136 618.825 935.365 622.993C901.014 629.863 873.905 648.735 862.605 659.566C842.818 696.995 811.099 731.107 761.051 753.729C756.033 755.996 750.826 758.111 745.561 760.156C747.607 771.528 741.169 815.19 739.005 824.303C733.232 848.548 731.575 856.497 710.274 858.24C677.513 857.661 642.403 858.879 601.97 856.954C592.842 856.516 584.579 847.812 581.531 838.25C581.531 838.25 566.137 802.602 570.54 792.872C501.285 796.673 429.796 793.005 367.945 787.023C365.7 800.186 359.206 827.689 355.347 836.065C351.173 845.109 349.655 856.091 328.802 857.404C251.376 856.535 284.386 857.364 228.725 854.319C220.863 853.881 208.897 842.143 203.53 832.144C203.53 832.144 175.374 760.537 177.048 751.286C143.466 729.635 100.182 677.921 86.2921 581.407C137.498 583.125 303 582.951 303.863 582.95L330.087 543.614L373.794 648.511C379.114 658.878 395.657 674.7 410.559 649.025C425.87 622.627 456.235 500 468.15 441.802C483.661 504.188 502.289 578.612 518.541 637.712C524.204 658.261 546.052 663.654 557.621 642.083C577.65 604.695 586.504 572.153 595.157 552.098L623.952 583.207C659.86 583.464 701.854 583.978 737.848 583.464C774.117 582.946 767.928 545.671 736.305 545.671C718.815 545.671 670.143 546.785 642.206 546.699C633.723 536.588 638.035 540.647 615.725 514.047C609.041 506.077 588.215 476.511 571.247 512.505C556.333 544.143 546.822 572.325 542.709 581.922C526.263 517.338 493.107 385.258 490.003 373.928C481.262 342.047 455.038 345.133 448.096 371.871C441.027 399.099 406.699 525.888 389.991 585.778C381.51 566.246 363.674 523.471 358.111 509.419C348.341 484.738 333.429 472.654 309.776 508.905C294.323 532.589 286.98 544.47 284.323 546.185C221.983 546.185 154.299 545.671 83.9139 545.671C85.6595 514.151 95.9782 452.081 116.116 399.445C95.8903 392.082 68.3718 370.301 62.5746 354.067C56.3917 336.722 47.1953 327.559 59.8108 289.278C72.062 252.159 114.863 245.88 117.337 245.378C132.117 242.249 139.219 242.194 147.482 243.064C168.324 246.566 169.126 273.313 153.781 277.515C144.223 280.123 145.156 281.408 119.908 283.814C101.637 285.554 96.0943 320.219 101.718 330.157C109.526 343.941 121.08 353.182 138.998 352.267C145.152 342.53 151.86 333.986 159.116 327.136C255.787 237.747 429.131 172.166 628.516 229.502C652.382 207.615 713.898 170.184 797.752 166.191ZM769.857 422.134C756.36 424.384 743.97 432.791 742.283 459.221C742.283 483.402 752.81 498.61 774.356 498.043C795.711 497.469 801.586 475.498 800.773 456.393C799.643 429.983 784.272 419.74 769.857 422.134Z" fill="url(#paint0_linear_484_499)"/>
<defs>
<linearGradient id="paint0_linear_484_499" x1="53.5073" y1="165.76" x2="719.554" y2="1047.74" gradientUnits="userSpaceOnUse">
<stop stop-color="#4A7CFF"/>
<stop offset="1" stop-color="#F0A25C"/>
</linearGradient>
</defs>
</svg>
